HIERARCHY
ROOT Hips
{
	OFFSET 0.000000 0.000000 0.000000 
	CHANNELS 6 Xposition Yposition Zposition Zrotation Yrotation Xrotation
	JOINT LeftUpLeg
	{
		OFFSET 1.363060 -1.794630 0.839290 
		CHANNELS 3 Zrotation Yrotation Xrotation
		JOINT LeftLeg
		{
			OFFSET 2.448110 -6.726130 0.000000 
			CHANNELS 3 Zrotation Yrotation Xrotation
			JOINT LeftFoot
			{
				OFFSET 2.562200 -7.039590 0.000000 
				CHANNELS 3 Zrotation Yrotation Xrotation
				JOINT LeftToeBase
				{
					OFFSET 0.157640 -0.433110 2.322550 
					CHANNELS 3 Zrotation Yrotation Xrotation
					End Site
					{
						OFFSET 0.000000 0.000000 0.000000 
					}
				}
			}
		}
	}
	JOINT RightUpLeg
	{
		OFFSET -1.305520 -1.794630 0.839290 
		CHANNELS 3 Zrotation Yrotation Xrotation
		JOINT RightLeg
		{
			OFFSET -2.542530 -6.985550 0.000000 
			CHANNELS 3 Zrotation Yrotation Xrotation
			JOINT RightFoot
			{
				OFFSET -2.568260 -7.056230 0.000000 
				CHANNELS 3 Zrotation Yrotation Xrotation
				JOINT RightToeBase
				{
					OFFSET -0.164730 -0.452590 2.363150 
					CHANNELS 3 Zrotation Yrotation Xrotation
					End Site
					{
						OFFSET 0.000000 0.000000 0.000000 
					}
				}
			}
		}
	}
	JOINT Spine
	{
		OFFSET 0.028270 2.035590 -0.193380 
		CHANNELS 3 Zrotation Yrotation Xrotation
		JOINT Spine1
		{
			OFFSET 0.056720 2.048850 -0.042750 
			CHANNELS 3 Zrotation Yrotation Xrotation
			JOINT Neck1
			{
				OFFSET -0.054170 1.746240 0.172020 
				CHANNELS 3 Zrotation Yrotation Xrotation
				JOINT Head
				{
					OFFSET 0.104070 1.761360 -0.123970 
					CHANNELS 3 Zrotation Yrotation Xrotation
					End Site
					{
						OFFSET 0.000000 0.000000 0.000000 
					}
				}
			}
			JOINT LeftArm
			{
				OFFSET 3.362410 1.200890 -0.311210 
				CHANNELS 3 Zrotation Yrotation Xrotation
				JOINT LeftForeArm
				{
					OFFSET 4.983000 -0.000000 -0.000000 
					CHANNELS 3 Zrotation Yrotation Xrotation
					JOINT LeftHand
					{
						OFFSET 3.483560 -0.000000 -0.000000 
						CHANNELS 3 Zrotation Yrotation Xrotation
						JOINT LeftHandIndex1
						{
							OFFSET 0.715260 -0.000000 -0.000000 
							CHANNELS 3 Zrotation Yrotation Xrotation
							End Site
							{
								OFFSET 0.000000 0.000000 0.000000 
							}
						}
					}
				}
			}
			JOINT RightArm
			{
				OFFSET -3.136600 1.374050 -0.404650 
				CHANNELS 3 Zrotation Yrotation Xrotation
				JOINT RightForeArm
				{
					OFFSET -5.241900 -0.000000 -0.000000 
					CHANNELS 3 Zrotation Yrotation Xrotation
					JOINT RightHand
					{
						OFFSET -3.444170 -0.000000 -0.000000 
						CHANNELS 3 Zrotation Yrotation Xrotation
						JOINT RightHandIndex1
						{
							OFFSET -0.622530 -0.000000 -0.000000 
							CHANNELS 3 Zrotation Yrotation Xrotation
							End Site
							{
								OFFSET 0.000000 0.000000 0.000000 
							}
						}
					}
				}
			}
		}
	}
}
MOTION
Frames: 13
Frame Time: 0.041667
15.185834 17.496270 -8.788960 5.451376 -13.930034 -1.119892 -21.323220 -1.658515 0.449780 -0.033509 4.566766 15.341153 -178.517795 6.615345 -24.541948 0.936700 -6.164700 -17.263100 12.142230 19.666901 -25.228284 -7.596184 -15.401552 50.875960 -1.681496 11.140611 -9.541069 -0.336200 3.726000 -10.307000 2.978812 -8.346761 2.255502 9.355628 -4.144568 -4.294776 13.999492 -32.305268 28.022735 3.726200 -14.883000 16.785000 -81.948505 5.442056 25.229487 27.699020 -36.237710 -10.700225 -0.354084 -2.050183 3.372660 -7.125000 0.000000 0.000000 84.915227 -15.595633 14.278206 -20.990089 29.484085 -5.596466 0.257125 -0.063743 2.144965 7.125000 0.000000 0.000000 
15.167030 17.501416 -8.832209 5.264164 -12.955158 -1.011241 -20.889726 -2.109926 0.301818 -0.032327 4.545279 15.270340 -178.527635 7.832235 -24.680681 0.761000 -5.571200 -15.545300 12.256641 20.225086 -24.527857 -7.701784 -15.456530 51.207978 -1.755721 12.044093 -9.624515 -0.354100 3.823000 -10.579200 3.027161 -8.374026 2.127394 9.421105 -4.133406 -4.465841 13.637322 -32.183647 28.305898 3.607900 -14.833500 16.846700 -82.135582 5.610603 24.694356 27.441818 -35.993161 -10.510822 -0.338922 -2.077738 3.558372 -7.125000 0.000000 0.000000 84.808961 -15.727911 14.126259 -20.783451 29.218439 -5.482187 0.263337 -0.062777 2.110145 7.125000 0.000000 0.000000 
15.145256 17.507156 -8.871599 5.173741 -11.974629 -0.890686 -20.579410 -2.542442 0.043584 -0.013342 4.593574 15.396495 -178.514974 8.705273 -25.024035 0.758800 -5.563000 -15.521700 12.279653 20.906822 -23.791266 -7.775656 -15.482626 51.419156 -1.807403 13.062846 -9.453731 -0.344300 3.770200 -10.431100 3.000080 -8.351322 2.048555 9.374644 -4.106921 -4.517332 13.057129 -32.077813 28.569474 3.354000 -14.764200 16.789600 -82.139010 5.678938 24.393541 27.204363 -35.770001 -10.339307 -0.338497 -2.096058 3.541124 -7.125000 0.000000 0.000000 84.860249 -15.805965 13.866757 -20.604824 28.991540 -5.385454 0.268508 -0.061126 2.004180 7.125000 0.000000 0.000000 
15.123285 17.512600 -8.909405 5.039413 -10.946025 -0.773927 -20.234394 -3.053106 -0.120110 -0.002907 4.637113 15.504131 -178.493993 9.205109 -25.349833 0.791700 -5.679800 -15.858100 12.391473 21.616612 -22.957279 -7.833714 -15.494416 51.570208 -1.851156 14.046384 -9.313477 -0.353600 3.820300 -10.571600 3.002199 -8.351843 1.999775 9.319172 -4.104185 -4.510021 12.869653 -31.902911 28.660642 3.314200 -14.689600 16.774600 -82.210781 5.697999 24.003194 26.899968 -35.475994 -10.119368 -0.353419 -2.114311 3.625406 -7.125000 0.000000 0.000000 84.848183 -15.793837 13.638708 -20.394989 28.724204 -5.272628 0.275375 -0.059958 1.759307 7.125000 0.000000 0.000000 
15.102700 17.518241 -8.948894 4.843265 -9.823317 -0.686423 -19.822581 -3.680985 -0.237150 0.010804 4.682169 15.612221 -178.516156 10.071257 -25.412374 0.693100 -5.322200 -14.829800 12.606314 22.175881 -22.122282 -7.873268 -15.491628 51.650333 -1.889908 15.046949 -9.200618 -0.348000 3.790400 -10.487600 3.004562 -8.266797 1.967626 9.172979 -4.062874 -4.554211 13.110926 -31.946497 28.649115 3.441100 -14.721900 16.922400 -82.218172 5.464610 23.876353 26.391664 -34.970250 -9.775521 -0.385147 -2.071624 3.519586 -7.125000 0.000000 0.000000 84.967358 -15.729029 13.045720 -20.161505 28.425761 -5.147563 0.280731 -0.058245 1.563873 7.125000 0.000000 0.000000 
15.079838 17.524080 -8.982147 4.752827 -8.716633 -0.598487 -19.535286 -4.257011 -0.405359 0.027955 4.729965 15.731240 -178.553206 11.011028 -25.429483 0.597500 -4.948500 -13.761800 12.705111 22.751862 -21.342169 -7.897303 -15.478459 51.676442 -1.907170 16.091801 -8.952758 -0.277000 3.385000 -9.352400 3.004763 -8.163007 1.896065 9.097832 -4.003032 -4.639325 13.074064 -32.123581 28.909670 3.426600 -14.816500 17.232200 -82.270662 5.251254 23.733729 25.934614 -34.505709 -9.470522 -0.420942 -2.019549 3.498447 -7.125000 0.000000 0.000000 85.022561 -15.735920 12.497751 -19.909446 28.101190 -5.014419 0.283515 -0.057704 1.309417 7.125000 0.000000 0.000000 
15.052720 17.529226 -9.012432 4.563540 -7.694954 -0.482364 -19.139259 -4.803941 -0.600803 0.042517 4.777951 15.847944 -178.572106 11.773122 -25.569837 0.539800 -4.707300 -13.075500 12.972494 23.504326 -20.435186 -7.903838 -15.451075 51.643581 -1.919210 16.894769 -8.818846 -0.201900 2.893400 -7.982200 2.964234 -8.102488 1.943617 8.934429 -3.986869 -4.511272 12.847288 -31.972719 29.026486 3.281700 -14.679100 17.225600 -82.164885 5.054411 23.407791 25.764377 -34.336555 -9.325880 -0.420949 -2.136025 3.616850 -7.125000 0.000000 0.000000 85.128651 -15.544548 12.158353 -19.633018 27.760890 -4.877050 0.280155 -0.063730 1.458987 7.125000 0.000000 0.000000 
15.023920 17.534274 -9.044795 4.393411 -6.561459 -0.390262 -18.759575 -5.366005 -0.784789 0.055100 4.824124 15.959526 -178.577482 12.414434 -25.817466 0.548500 -4.744700 -13.181900 13.272093 24.233080 -19.446330 -7.898862 -15.417332 51.575772 -1.930859 17.464962 -8.785248 -0.148900 2.486900 -6.853500 2.902443 -8.190803 2.021221 8.786850 -4.051464 -4.331364 12.931449 -31.955279 28.976822 3.250800 -14.605600 17.248500 -82.034785 4.902930 22.792714 25.628311 -34.208270 -9.226325 -0.528274 -2.074930 3.972671 -7.125000 0.000000 0.000000 85.244374 -15.208111 11.673693 -19.276430 27.325444 -4.704473 0.266910 -0.076602 2.467565 7.125000 0.000000 0.000000 
14.997792 17.539321 -9.074486 4.276914 -5.335230 -0.287775 -18.454537 -6.085805 -0.984517 0.081288 4.913004 16.193149 -178.604749 13.134896 -25.937173 0.493900 -4.505700 -12.503900 13.520669 24.789675 -18.495731 -7.878423 -15.377245 51.459735 -1.942549 17.867750 -8.806719 -0.124100 2.271100 -6.255500 2.883256 -8.383512 2.025312 8.735121 -4.156963 -4.206189 12.958047 -31.787037 28.981199 3.271700 -14.505900 17.241800 -82.110103 4.958488 22.046849 25.547139 -34.131174 -9.167153 -0.563082 -2.030517 4.247131 -7.125000 0.000000 0.000000 85.246254 -14.949212 11.359003 -18.890089 26.833470 -4.517035 0.260029 -0.081826 3.351103 7.125000 0.000000 0.000000 
14.968596 17.548031 -9.102395 4.130383 -4.115114 -0.187859 -18.105979 -6.812188 -1.244674 0.120403 5.037105 16.529471 -178.627522 13.868366 -26.145386 0.428600 -4.201700 -11.644900 13.844047 25.298223 -17.612198 -7.849009 -15.330709 51.313394 -1.948289 18.252976 -8.788329 -0.106100 2.100300 -5.782800 2.939577 -8.447905 1.957657 8.757510 -4.183477 -4.206223 12.836279 -31.503929 28.977188 3.286200 -14.387500 17.134100 -82.355264 5.217426 21.727452 25.503757 -34.086210 -9.140345 -0.578681 -2.001660 4.020905 -7.125000 0.000000 0.000000 85.122750 -15.014222 11.287926 -18.693083 26.568741 -4.419435 0.261863 -0.078988 3.572903 7.125000 0.000000 0.000000 
14.934749 17.545655 -9.135649 3.952516 -2.878270 -0.061661 -17.672057 -7.375772 -1.622191 0.160471 5.143315 16.814558 -178.679545 14.931782 -26.354255 0.361700 -3.863700 -10.693500 14.208392 25.851004 -16.766959 -7.811385 -15.278310 51.144072 -1.945661 18.523239 -8.719435 -0.069100 1.695400 -4.664500 3.010316 -8.317522 1.751958 8.739868 -4.082812 -4.520932 13.035666 -31.356808 28.738471 3.500200 -14.396500 16.979700 -82.556956 5.584076 22.053605 25.367507 -33.939536 -9.051626 -0.607724 -2.013180 3.491227 -7.125000 0.000000 0.000000 85.099359 -15.443369 10.685417 -18.562234 26.385514 -4.350525 0.259390 -0.089286 3.663815 7.125000 0.000000 0.000000 
14.901000 17.530216 -9.166230 4.149533 -1.609429 0.137294 -17.638365 -8.003486 -1.982979 0.184737 5.197643 16.956408 -178.776679 16.050942 -26.325132 0.288300 -3.452900 -9.542400 14.105703 26.327938 -15.927992 -7.760909 -15.227012 50.931772 -1.971457 18.540366 -8.940878 -0.067600 1.677200 -4.614400 2.977061 -8.260903 1.550227 8.802967 -4.017477 -4.751735 13.143981 -31.309180 28.548218 3.606700 -14.410600 16.872900 -82.649157 5.894643 22.408060 25.243321 -33.810137 -8.976468 -0.628556 -2.003536 2.931225 -7.125000 0.000000 0.000000 85.063028 -15.539091 9.992724 -18.144278 25.829036 -4.148036 0.256681 -0.106417 4.091308 7.125000 0.000000 0.000000 
14.868934 17.526257 -9.186717 4.436388 -0.415947 0.302756 -17.753927 -8.713560 -2.190821 0.201397 5.239385 17.066698 -178.858523 16.837604 -26.263208 0.237600 -3.137400 -8.661400 13.945869 26.696884 -15.057451 -7.693727 -15.167838 50.654014 -2.033138 18.364472 -9.501282 -0.117000 2.205100 -6.072900 2.887798 -8.267763 1.385359 8.841098 -3.988353 -4.907798 13.010628 -31.309994 28.634442 3.548100 -14.400200 16.891000 -82.595874 6.157928 22.537338 25.042605 -33.608403 -8.861707 -0.623375 -1.931496 2.996612 -7.125000 0.000000 0.000000 85.009896 -15.497022 9.594403 -17.648809 25.161722 -3.915540 0.259487 -0.120524 4.791509 7.125000 0.000000 0.000000 
